<svg width="32" height="32" viewBox="0 0 32 32" fill="none" xmlns="http://www.w3.org/2000/svg">
<path d="M15.9999 0C12.8354 0 9.74197 0.938351 7.1108 2.69644C4.47963 4.45453 2.4289 6.95338 1.21791 9.87698C0.00691294 12.8006 -0.309912 16.0178 0.307448 19.1215C0.924807 22.2251 2.4486 25.076 4.68623 27.3136C6.92385 29.5513 9.7748 31.0752 12.8785 31.6926C15.9822 32.3099 19.1992 31.993 22.1228 30.782C25.0464 29.571 27.5453 27.5203 29.3034 24.8891C31.0615 22.258 31.9998 19.1645 31.9998 16C31.9998 11.7565 30.3141 7.68687 27.3136 4.68631C24.313 1.68574 20.2433 0 15.9999 0ZM15.9999 24.098C14.3982 24.098 12.8326 23.6232 11.5008 22.7334C10.1691 21.8436 9.13115 20.5788 8.51822 19.0991C7.90529 17.6194 7.74489 15.9909 8.05736 14.4201C8.36983 12.8492 9.14108 11.4064 10.2736 10.2739C11.4062 9.14131 12.8492 8.36984 14.42 8.05737C15.9909 7.7449 17.6192 7.90523 19.0989 8.51816C20.5787 9.13108 21.8434 10.169 22.7332 11.5008C23.6231 12.8325 24.098 14.3983 24.098 16C24.098 18.1477 23.2449 20.2074 21.7262 21.7261C20.2075 23.2448 18.1477 24.098 15.9999 24.098Z" fill="white"/>
</svg>
